PathFileType	4	(X/Y/Z)	./resultDataOpenSim/trcMotMarkerGrf/sub06/qtm-12-08.trc
DataRate	CameraRate	NumFrames	NumMarkers	Units	OrigDataRate	OrigDataStartFrame	OrigNumFrames
250.000000	250.000000	13	24	m	250.000000	1	519
Frame#	Time	L.Toe.Tip			R.Toe.Tip			L.Ankle.Lat			R.Ankle.Lat			L.Ankle.Med			R.Ankle.Med			L.Heel			R.Heel			L.Knee.Lat			R.Knee.Lat			L.Knee.Med			R.Knee.Med			L.Thigh.Upper			R.Thigh.Upper			L.ASIS			R.ASIS			V.Sacral			L.Acromium			R.Acromium			C7			L.Elbow			R.Elbow			L.Wrist.Lat			R.Wrist.Lat
		X1	Y1	Z1	X2	Y2	Z2	X3	Y3	Z3	X4	Y4	Z4	X5	Y5	Z5	X6	Y6	Z6	X7	Y7	Z7	X8	Y8	Z8	X9	Y9	Z9	X10	Y10	Z10	X11	Y11	Z11	X12	Y12	Z12	X13	Y13	Z13	X14	Y14	Z14	X15	Y15	Z15	X16	Y16	Z16	X17	Y17	Z17	X18	Y18	Z18	X19	Y19	Z19	X20	Y20	Z20	X21	Y21	Z21	X22	Y22	Z22	X23	Y23	Z23	X24	Y24	Z24

1	0	-1.5064394	0.031359376	-0.098235186	-1.0653964	0.079232162	0.11029508	-1.6277477	0.071026045	-0.11242537	-1.1993547	0.081185384	0.11247711	-1.6199063	0.082714259	-0.026738115	-1.1744277	0.10808071	0.030896521	NaN	NaN	NaN	-1.2377824	0.04882359	0.039723498	-1.4884914	0.41628254	-0.13096289	-1.2190135	0.4740352	0.12669465	-1.500702	0.4204999	-0.011070301	-1.2326601	0.45334518	-0.00093337358	-1.4129603	0.79832168	-0.200409	-1.4106961	0.80047463	0.14964986	-1.3342353	0.8392306	-0.15526416	-1.3252317	0.84922066	0.089201295	-1.5113008	0.93041634	-0.023816199	-1.3331878	1.3334764	-0.20136115	-1.3510893	1.3090841	0.15912584	-1.4169373	1.3637216	-0.022677057	-1.3573815	1.0154724	-0.28978586	-1.4858697	1.0205687	0.20942721	-1.1501641	0.87434355	-0.26258742	-1.3824117	0.80169132	0.23304887
2	0.004	-1.5064037	0.031306883	-0.098233374	-1.0483561	0.081896501	0.11064317	-1.6281054	0.071477019	-0.11188847	-1.1810328	0.081257557	0.11354298	-1.6197331	0.083166194	-0.026726415	-1.1582833	0.10818977	0.031369983	NaN	NaN	NaN	-1.2204387	0.047493336	0.040394132	-1.4859903	0.41575464	-0.13099013	-1.2126278	0.47257858	0.12629507	-1.4980151	0.42012364	-0.011120566	-1.2258538	0.45175034	-0.0014701028	-1.4077803	0.79695181	-0.20026745	-1.4047193	0.79888792	0.14955345	-1.3287706	0.83787176	-0.15539564	-1.3189195	0.84767116	0.089256721	-1.5055381	0.92887525	-0.023553231	-1.3278377	1.3320128	-0.20134198	-1.3458759	1.3073907	0.15929498	-1.4116499	1.3623318	-0.022865827	-1.3498001	1.0137913	-0.28972874	-1.4810842	1.0191726	0.20913539	-1.1417216	0.8744753	-0.26115467	-1.378492	0.79986053	0.23305772
3	0.008	-1.5063709	0.031259057	-0.098234893	-1.0315197	0.084686402	0.11090204	-1.6282203	0.071938643	-0.11155823	-1.1633807	0.081257237	0.1144224	-1.6193495	0.083606084	-0.026745355	-1.1422882	0.10842682	0.031837754	NaN	NaN	NaN	-1.2032717	0.046280559	0.041079815	-1.4834078	0.41522039	-0.13101148	-1.2065718	0.4710119	0.12578515	-1.495283	0.41972451	-0.011187571	-1.2190876	0.45013878	-0.0020254783	-1.4026426	0.79560817	-0.20019255	-1.3987223	0.79724205	0.14946399	-1.3232744	0.83649368	-0.15552242	-1.3126	0.846118	0.089321763	-1.499663	0.92732746	-0.02311016	-1.3224697	1.3305297	-0.20129807	-1.3406848	1.3057122	0.15948273	-1.4062993	1.3609614	-0.022897356	-1.342238	1.012115	-0.28972054	-1.4763071	1.017863	0.20882814	-1.133288	0.87456128	-0.25970181	-1.3745707	0.79802621	0.23309213
4	0.012	-1.5063224	0.031223422	-0.098267353	-1.0149944	0.087707086	0.11102745	-1.628057	0.072414631	-0.11145693	-1.1464803	0.081270521	0.11510831	-1.6187299	0.084046349	-0.0268025	-1.1265375	0.10885163	0.032284445	NaN	NaN	NaN	-1.1862433	0.045241211	0.041745706	-1.4806923	0.41467075	-0.13103078	-1.2008908	0.4692891	0.12516087	-1.4924878	0.41928806	-0.011261904	-1.2123784	0.44848409	-0.0026004144	-1.3975467	0.79430296	-0.20020554	-1.3927085	0.79550938	0.14938598	-1.3177332	0.83508482	-0.15564342	-1.3062643	0.84453453	0.089392992	-1.4935418	0.92574567	-0.022283418	-1.317072	1.3290065	-0.20121541	-1.3354988	1.3040365	0.15969467	-1.4008631	1.3596013	-0.022743208	-1.3346908	1.0104373	-0.28976765	-1.4715257	1.0165945	0.20851922	-1.1248657	0.87457546	-0.25821369	-1.370618	0.79617688	0.23315686
5	0.016	-1.5062138	0.031213589	-0.098389128	-0.99883235	0.091025117	0.1110192	-1.6277307	0.072897046	-0.11148381	-1.1300667	0.081454733	0.11570614	-1.6180272	0.084518099	-0.026880129	-1.1110982	0.1094601	0.032689416	NaN	NaN	NaN	-1.1693017	0.044392345	0.042349235	-1.4778573	0.41410568	-0.131048	-1.1951793	0.46748432	0.12457137	-1.4896152	0.41880701	-0.011325568	-1.2057314	0.4467681	-0.0031837851	-1.3924637	0.79301036	-0.20025197	-1.3867055	0.79369359	0.1493154	-1.3121737	0.83364737	-0.15577464	-1.2999133	0.84289871	0.089457789	-1.4871167	0.92410999	-0.020974511	-1.3116519	1.3274357	-0.20109493	-1.3302921	1.3023406	0.15992404	-1.3953789	1.3582211	-0.022521459	-1.3271527	1.0087456	-0.28982888	-1.4667392	1.0152311	0.20825291	-1.11648	0.87451192	-0.25669168	-1.3666081	0.79430163	0.23323983
6	0.02	-1.506008	0.031243316	-0.098651693	-0.98302206	0.094698262	0.11086865	-1.6273499	0.073379251	-0.11155325	-1.1139994	0.081865463	0.11627095	-1.6173737	0.085049745	-0.026963298	-1.0960218	0.11022743	0.033038646	NaN	NaN	NaN	-1.1525516	0.04374248	0.042904417	-1.4749487	0.41353488	-0.13106277	-1.1890187	0.46570258	0.12416674	-1.4866187	0.41827511	-0.011381583	-1.199132	0.44499215	-0.0037771799	-1.3873718	0.79168974	-0.20024159	-1.3807215	0.79181391	0.14924691	-1.3066228	0.83218422	-0.15593614	-1.2935385	0.84121383	0.089504939	-1.480528	0.92245274	-0.019400795	-1.3062175	1.3258269	-0.2009497	-1.3250578	1.300614	0.16016642	-1.3898916	1.356796	-0.022364927	-1.3196125	1.0070268	-0.28983943	-1.461959	1.0136992	0.20806298	-1.1081593	0.87437337	-0.25515017	-1.3625393	0.79239875	0.2333323
7	0.024	-1.5057434	0.031303703	-0.099007785	-0.96753843	0.098744054	0.11054594	-1.6269596	0.073876394	-0.11162988	-1.0983675	0.082442742	0.11676883	-1.6167626	0.085640326	-0.027062207	-1.0813746	0.11112551	0.033323881	NaN	NaN	NaN	-1.1361475	0.043275876	0.043447528	-1.4719892	0.41296568	-0.13108301	-1.1825063	0.46396162	0.12393172	-1.4834596	0.41769156	-0.011448453	-1.1925548	0.44317529	-0.0043931072	-1.3822807	0.79034424	-0.20014145	-1.3747085	0.7898834	0.14920532	-1.301064	0.83070104	-0.15611214	-1.2871222	0.83949761	0.089531049	-1.4740616	0.92084501	-0.018011785	-1.3007692	1.3241982	-0.20079788	-1.3198134	1.2988706	0.16042654	-1.3844091	1.3553293	-0.022286451	-1.3120581	1.0052756	-0.28974785	-1.4571647	1.0120378	0.20793112	-1.0999181	0.87416405	-0.25360889	-1.3584241	0.79047959	0.23344173
8	0.028	-1.5055424	0.031354678	-0.099292632	-0.9524669	0.10303749	0.11009682	-1.6265619	0.074423421	-0.11171041	-1.0832828	0.083119142	0.11714686	-1.616126	0.086256692	-0.027198788	-1.0672115	0.11212648	0.033535335	NaN	NaN	NaN	-1.1201837	0.042951684	0.043971906	-1.4689711	0.4123973	-0.13111267	-1.1759812	0.46223652	0.12376072	-1.4801673	0.41706643	-0.011529658	-1.1859751	0.44134204	-0.0050280255	-1.3772005	0.78900133	-0.19999013	-1.3685499	0.78789189	0.14926881	-1.2954479	0.82921849	-0.15625888	-1.2806603	0.83776299	0.089542797	-1.4678992	0.91932481	-0.017089569	-1.2952992	1.3225611	-0.20065042	-1.3145838	1.2971404	0.16071122	-1.3789075	1.3538451	-0.022201992	-1.3044809	1.0034986	-0.28953542	-1.4523029	1.0103215	0.2078089	-1.0917521	0.87388918	-0.25208169	-1.3542649	0.78856115	0.23358089
9	0.032	-1.5054929	0.031360704	-0.099383438	-0.93801312	0.10732558	0.10967242	-1.6261449	0.075044082	-0.11181088	-1.0687532	0.083871493	0.11738417	-1.6154363	0.086872363	-0.02738302	-1.0535468	0.11320494	0.033660211	NaN	NaN	NaN	-1.1047415	0.042735276	0.044423485	-1.4658769	0.4118255	-0.13114861	-1.1695787	0.46054105	0.12359	-1.4768214	0.41641556	-0.011608063	-1.1793762	0.43951156	-0.0056581491	-1.3721131	0.78764329	-0.19978719	-1.3621278	0.78583496	0.14951727	-1.2897464	0.82775832	-0.15636772	-1.2741709	0.83601629	0.089549812	-1.462018	0.91786762	-0.016582258	-1.2897985	1.3209151	-0.20050141	-1.3093818	1.2954422	0.16102466	-1.3733669	1.3523641	-0.022049341	-1.2968817	1.0017108	-0.2892114	-1.4473682	1.0086099	0.20768211	-1.0836535	0.87355729	-0.25056761	-1.3500516	0.78665541	0.23375067
10	0.036	-1.505551	0.03132618	-0.099334032	-0.92431425	0.11140413	0.10936772	-1.6256955	0.075728811	-0.11195115	-1.0547409	0.084689884	0.11748465	-1.6147057	0.08750661	-0.02761203	-1.0403645	0.11433541	0.033685338	NaN	NaN	NaN	-1.0898803	0.042612281	0.044738325	-1.4626894	0.41124842	-0.13119433	-1.1632502	0.45891228	0.12340497	-1.4734465	0.41575324	-0.01167923	-1.1727502	0.43769888	-0.006266918	-1.3670008	0.78623248	-0.19942102	-1.3554176	0.78375857	0.14992581	-1.2839817	0.82632034	-0.15649851	-1.2676611	0.83426277	0.089556021	-1.4563308	0.91642352	-0.016312466	-1.2842616	1.3192556	-0.20033377	-1.3041962	1.2937704	0.16136713	-1.36779	1.3508931	-0.021842255	-1.2892801	0.99993034	-0.28881653	-1.4424182	1.0069417	0.20758067	-1.0756242	0.87317825	-0.24905408	-1.3457745	0.78476424	0.2339447
11	0.04	-1.5056157	0.031277884	-0.099274151	-0.91133275	0.11520549	0.10912348	-1.6252069	0.076450813	-0.11213764	-1.0412337	0.085546782	0.11745623	-1.613948	0.088208401	-0.027881321	-1.0276352	0.11548933	0.033604433	NaN	NaN	NaN	-1.0756058	0.042571459	0.044886673	-1.4593936	0.41066664	-0.13126379	-1.1568801	0.45738092	0.12321739	-1.469969	0.41508987	-0.011767455	-1.1660934	0.4359228	-0.0068596627	-1.3618806	0.78480155	-0.198782	-1.3483929	0.78176624	0.15039058	-1.2782136	0.82488869	-0.15673598	-1.2611102	0.8325096	0.08956256	-1.4508084	0.91496156	-0.016171006	-1.278685	1.3175845	-0.20013382	-1.2989944	1.292109	0.16173293	-1.3621885	1.3494334	-0.021624692	-1.2817063	0.99817137	-0.28840678	-1.4374756	1.0053203	0.20752242	-1.0676688	0.87275527	-0.24752814	-1.3414309	0.78288421	0.23416086
12	0.044	-1.5056423	0.031231247	-0.099260966	-0.89896014	0.11871605	0.10882575	-1.6246853	0.077201485	-0.11236427	-1.0282442	0.086393319	0.11730625	-1.6131992	0.088995975	-0.028174555	-1.0153398	0.11663066	0.033421882	NaN	NaN	NaN	-1.0619095	0.042591776	0.044879475	-1.4559781	0.41007584	-0.13136672	-1.1503485	0.45596009	0.12304798	-1.4663513	0.41442493	-0.011888852	-1.1594005	0.4342066	-0.0074415928	-1.3567705	0.78343446	-0.19794598	-1.3408956	0.77996477	0.15088006	-1.2725035	0.82345351	-0.15709751	-1.2545016	0.83076828	0.089569095	-1.4454313	0.91348864	-0.016123636	-1.2730644	1.315914	-0.19990112	-1.2937471	1.2904515	0.16211563	-1.3565581	1.3479898	-0.021399728	-1.2741737	0.99643751	-0.28800141	-1.4324799	1.0037144	0.20748379	-1.0597854	0.87228102	-0.24598864	-1.337025	0.78101339	0.23439814
13	0.048	-1.5056428	0.031187215	-0.099281215	-0.88713014	0.12190255	0.10841698	-1.6241457	0.078004055	-0.11262772	-1.0157847	0.087171141	0.11704438	-1.6126445	0.08981089	-0.028416293	-1.0034936	0.11771425	0.033143087	NaN	NaN	NaN	-1.048802	0.042655295	0.044727041	-1.4524368	0.40946677	-0.13149808	-1.1436318	0.45463378	0.12289843	-1.4626886	0.4137457	-0.012023032	-1.1526625	0.43257076	-0.0079956778	-1.3516343	0.78215794	-0.19715789	-1.3329268	0.77835876	0.15141585	-1.2668633	0.82201499	-0.15749237	-1.2478395	0.82905029	0.089568608	-1.440018	0.91203204	-0.0161341	-1.267395	1.3142617	-0.19964761	-1.2884496	1.2888097	0.16251432	-1.3508795	1.34657	-0.021123807	-1.266675	0.99472574	-0.28757222	-1.4273585	1.0020949	0.20743452	-1.0519684	0.87174595	-0.24444912	-1.3325603	0.77915463	0.23465205
